<svg xmlns="http://www.w3.org/2000/svg" width="57.365" height="57.365" viewBox="0 0 57.365 57.365"><defs><style>.a{fill:#1b790f;}</style></defs><path class="a" d="M28.682,0A28.682,28.682,0,1,0,57.365,28.682,28.685,28.685,0,0,0,28.682,0Zm.608,45.382h-.007a17.16,17.16,0,0,1-8.2-2.089l-9.1,2.387,2.436-8.893a17.168,17.168,0,1,1,14.876,8.6Zm0,0"/><path class="a" d="M148.345,124.469a14.27,14.27,0,0,0-12.093,21.854l.339.54-1.442,5.264,5.4-1.416.521.309a14.246,14.246,0,0,0,7.262,1.988h.006a14.269,14.269,0,0,0,.006-28.538Zm8.393,20.4a4.42,4.42,0,0,1-2.9,2.039,5.887,5.887,0,0,1-2.7-.17,24.772,24.772,0,0,1-2.446-.9c-4.3-1.857-7.113-6.188-7.327-6.475a8.34,8.34,0,0,1-1.751-4.436,4.808,4.808,0,0,1,1.5-3.577,1.577,1.577,0,0,1,1.144-.537c.286,0,.572,0,.822.015s.617-.1.965.736c.358.859,1.215,2.969,1.323,3.184a.791.791,0,0,1,.036.751,12.223,12.223,0,0,1-1.072,1.467c-.19.236-.439.446-.188.875a12.93,12.93,0,0,0,2.386,2.97,11.725,11.725,0,0,0,3.45,2.128c.428.214.679.179.929-.107s1.072-1.252,1.358-1.681.572-.358.965-.214,2.5,1.18,2.931,1.395.715.322.822.5A3.577,3.577,0,0,1,156.738,144.864Zm0,0" transform="translate(-119.049 -110.523)"/></svg>