<svg xmlns="http://www.w3.org/2000/svg" width="57.365" height="57.365" viewBox="0 0 57.365 57.365"><defs><style>.a{fill:#4185a3;}</style></defs><path class="a" d="M28.682,0A28.682,28.682,0,1,0,57.365,28.682,28.685,28.685,0,0,0,28.682,0Zm13.1,22.363q.019.423.019.851c0,8.7-6.622,18.731-18.731,18.731h0a18.635,18.635,0,0,1-10.091-2.957,13.39,13.39,0,0,0,1.57.091,13.21,13.21,0,0,0,8.177-2.818,6.591,6.591,0,0,1-6.15-4.573,6.562,6.562,0,0,0,2.973-.113,6.585,6.585,0,0,1-5.282-6.453c0-.03,0-.056,0-.084a6.538,6.538,0,0,0,2.982.823,6.589,6.589,0,0,1-2.038-8.789,18.691,18.691,0,0,0,13.57,6.879,6.587,6.587,0,0,1,11.218-6,13.2,13.2,0,0,0,4.181-1.6,6.609,6.609,0,0,1-2.9,3.641,13.13,13.13,0,0,0,3.78-1.037A13.379,13.379,0,0,1,41.778,22.363Zm0,0"/></svg>