<svg xmlns="http://www.w3.org/2000/svg" width="43" height="43" viewBox="0 0 43 43"><defs><style>.a{fill:#de6834;}</style></defs><path class="a" d="M40.655,2.345A7.954,7.954,0,0,0,34.993,0H8.007A8.016,8.016,0,0,0,0,8.006V34.993A8.016,8.016,0,0,0,8.007,43H34.993A8.016,8.016,0,0,0,43,34.993V8.007A7.954,7.954,0,0,0,40.655,2.345ZM13.93,18.266a1.26,1.26,0,0,1,1.782,0l4.529,4.529V9.356a1.26,1.26,0,0,1,2.52,0V22.794l4.528-4.528a1.26,1.26,0,0,1,1.782,1.782l-6.679,6.679a1.26,1.26,0,0,1-1.781,0L13.93,20.048A1.26,1.26,0,0,1,13.93,18.266ZM33.644,34.9H9.356a1.26,1.26,0,0,1,0-2.52H33.644a1.26,1.26,0,0,1,0,2.52Z"/></svg>