<svg xmlns="http://www.w3.org/2000/svg" width="30.065" height="30.065" viewBox="0 0 30.065 30.065"><defs><style>.a{fill:#de6834;}</style></defs><path class="a" d="M24.467,0H5.6A5.6,5.6,0,0,0,0,5.6V24.467a5.6,5.6,0,0,0,5.6,5.6H24.467a5.6,5.6,0,0,0,5.6-5.6V5.6A5.6,5.6,0,0,0,24.467,0ZM28.3,24.467A3.841,3.841,0,0,1,24.467,28.3H5.6a3.841,3.841,0,0,1-3.836-3.836V5.6A3.841,3.841,0,0,1,5.6,1.762H24.467A3.841,3.841,0,0,1,28.3,5.6Z"/><g transform="translate(5.661 7.076)"><path class="a" d="M114.263,120.5H97.281a.881.881,0,1,0,0,1.762h16.982a.881.881,0,0,0,0-1.762Z" transform="translate(-96.4 -120.5)"/></g><g transform="translate(5.661 14.152)"><path class="a" d="M114.263,241H97.281a.881.881,0,1,0,0,1.762h16.982a.881.881,0,1,0,0-1.762Z" transform="translate(-96.4 -241)"/></g><g transform="translate(5.661 21.228)"><path class="a" d="M114.263,361.5H97.281a.881.881,0,1,0,0,1.762h16.982a.881.881,0,1,0,0-1.762Z" transform="translate(-96.4 -361.5)"/></g></svg>