<svg xmlns="http://www.w3.org/2000/svg" width="38.716" height="38.716" viewBox="0 0 38.716 38.716"><defs><style>.a{opacity:0.854;}.b{fill:#333;}</style></defs><g class="a"><path class="b" d="M31.507,0H7.209A7.217,7.217,0,0,0,0,7.209v24.3a7.217,7.217,0,0,0,7.209,7.209h24.3a7.217,7.217,0,0,0,7.209-7.209V7.209A7.217,7.217,0,0,0,31.507,0Zm4.94,31.507a4.946,4.946,0,0,1-4.94,4.94H7.209a4.946,4.946,0,0,1-4.94-4.94V7.209a4.946,4.946,0,0,1,4.94-4.94h24.3a4.946,4.946,0,0,1,4.94,4.94Z"/><g transform="translate(7.289 9.112)"><path class="b" d="M119.4,120.5H97.534a1.134,1.134,0,1,0,0,2.269H119.4a1.134,1.134,0,0,0,0-2.269Z" transform="translate(-96.4 -120.5)"/></g><g transform="translate(7.289 18.224)"><path class="b" d="M119.4,241H97.534a1.134,1.134,0,1,0,0,2.269H119.4a1.134,1.134,0,0,0,0-2.269Z" transform="translate(-96.4 -241)"/></g><g transform="translate(7.289 27.336)"><path class="b" d="M119.4,361.5H97.534a1.134,1.134,0,0,0,0,2.269H119.4a1.134,1.134,0,0,0,0-2.269Z" transform="translate(-96.4 -361.5)"/></g></g></svg>