<svg xmlns="http://www.w3.org/2000/svg" width="23.912" height="21.427" viewBox="0 0 23.912 21.427"><defs><style>.a{fill:#de6834;}</style></defs><g transform="translate(-14.472 -18.165)"><path class="a" d="M25.1,22.2H16.491a2.019,2.019,0,1,1,0-4.038H25.1a2.019,2.019,0,1,1,0,4.038Z"/><path class="a" d="M30.705,48.038H16.491a2.019,2.019,0,1,1,0-4.038H30.705a2.019,2.019,0,1,1,0,4.038Z" transform="translate(0 -17.141)"/><path class="a" d="M36.365,73.873H16.491a2.019,2.019,0,1,1,0-4.038H36.365a2.019,2.019,0,1,1,0,4.038Z" transform="translate(0 -34.281)"/></g></svg>