<svg xmlns="http://www.w3.org/2000/svg" width="29" height="29.002" viewBox="0 0 29 29.002"><defs><style>.a{fill:#de6834;}</style></defs><g transform="translate(0 0.001)"><path class="a" d="M17.781,9a3.248,3.248,0,0,0-3.1,2.417H7.813A1.815,1.815,0,0,0,6,13.229v1.813a1.208,1.208,0,0,0,2.417,0V13.833h6.264a3.616,3.616,0,0,0,7.028-1.208A3.9,3.9,0,0,0,17.781,9Zm.3,4.833a1.208,1.208,0,1,1,1.208-1.208A1.21,1.21,0,0,1,18.083,13.833Z" transform="translate(1.25 1.875)"/><path class="a" d="M1.812,14.5A12.681,12.681,0,0,1,21.426,3.875L19.6,5.7a.906.906,0,0,0,.64,1.547h5.438a.907.907,0,0,0,.906-.906V.907a.906.906,0,0,0-1.547-.64L22.724,2.579A14.367,14.367,0,0,0,14.5,0,14.495,14.495,0,0,0,.62,18.688a.906.906,0,1,0,1.735-.523A12.668,12.668,0,0,1,1.813,14.5Z" transform="translate(0 0)"/><path class="a" d="M27.963,8.645a.906.906,0,1,0-1.735.523,12.682,12.682,0,0,1-19.059,14.3l1.819-1.839a.907.907,0,0,0-.644-1.544H2.906a.9.9,0,0,0-.644.269A.912.912,0,0,0,2,21l.06,5.438a.907.907,0,0,0,1.55.627L5.88,24.769a14.361,14.361,0,0,0,8.2,2.564A14.495,14.495,0,0,0,27.963,8.645Z" transform="translate(0.417 1.667)"/></g></svg>