<svg xmlns="http://www.w3.org/2000/svg" width="38.781" height="38.377" viewBox="0 0 38.781 38.377"><defs><style>.a{opacity:0.854;}</style></defs><g class="a" transform="translate(0 -0.26)"><g transform="translate(0 19.893)"><path d="M0,25.573V44.317H6.463V25.573ZM4.848,42.7H1.616V27.189H4.848Z" transform="translate(0 -25.573)"/></g><g transform="translate(10.826 22.479)"><path d="M13.958,28.906V45.065h6.463V28.906Zm4.848,14.543H15.574V30.522h3.232Z" transform="translate(-13.958 -28.906)"/></g><g transform="translate(21.572 16.5)"><path d="M27.812,21.2V43.335h6.463V21.2ZM32.66,41.719H29.428V22.814H32.66Z" transform="translate(-27.812 -21.198)"/></g><g transform="translate(32.317 17.631)"><path d="M41.667,22.656V43.663H48.13V22.656Zm4.848,19.39H43.283V24.272h3.232Z" transform="translate(-41.667 -22.656)"/></g><g transform="translate(0 3.977)"><path d="M3.313,5.052a3.233,3.233,0,1,0,0,6.463A3.311,3.311,0,0,0,6.625,8.284,3.259,3.259,0,0,0,3.313,5.052Zm0,4.848a1.618,1.618,0,1,1,0-3.232,1.692,1.692,0,0,1,1.7,1.616A1.64,1.64,0,0,1,3.313,9.9Z" transform="translate(0 -5.052)"/></g><g transform="translate(13.492 10.44)"><path d="M20.466,13.385a3.07,3.07,0,1,0,3.07,3.07A3.069,3.069,0,0,0,20.466,13.385Zm0,4.605a1.454,1.454,0,1,1,1.454-1.454A1.448,1.448,0,0,1,20.466,17.991Z" transform="translate(-17.396 -13.385)"/></g><g transform="translate(21.895 0.26)"><path d="M31.461.26a3.232,3.232,0,1,0,3.232,3.232A3.241,3.241,0,0,0,31.461.26Zm0,4.928a1.616,1.616,0,1,1,1.616-1.616A1.621,1.621,0,0,1,31.461,5.189Z" transform="translate(-28.229 -0.26)"/></g><g transform="translate(32.236 7.047)"><path d="M44.794,9.01a3.232,3.232,0,1,0,3.232,3.232A3.241,3.241,0,0,0,44.794,9.01Zm0,4.928a1.616,1.616,0,0,1,0-3.232,1.571,1.571,0,0,1,1.616,1.616A1.621,1.621,0,0,1,44.794,13.939Z" transform="translate(-41.562 -9.01)"/></g><g transform="translate(5.619 7.46)"><g transform="translate(0)"><rect width="1.616" height="9.371" transform="translate(0 1.446) rotate(-63.499)"/></g></g><g transform="translate(17.584 4.672)"><g transform="translate(0)"><rect width="8.161" height="1.616" transform="matrix(0.622, -0.783, 0.783, 0.622, 0, 6.39)"/></g></g><g transform="translate(26.748 3.749)"><g transform="translate(0)"><rect width="1.616" height="7.514" transform="translate(0 1.321) rotate(-54.803)"/></g></g></g></svg>