<svg xmlns="http://www.w3.org/2000/svg" width="57.365" height="57.365" viewBox="0 0 57.365 57.365"><defs><style>.a{fill:#2f5c77;}</style></defs><path class="a" d="M28.682,0A28.682,28.682,0,1,0,57.365,28.682,28.685,28.685,0,0,0,28.682,0ZM20.348,43.36H13.362V22.344h6.985ZM16.855,19.474H16.81a3.641,3.641,0,1,1,.092-7.262,3.642,3.642,0,1,1-.046,7.262ZM45.536,43.36H38.551V32.117c0-2.826-1.011-4.753-3.539-4.753a3.824,3.824,0,0,0-3.584,2.555,4.784,4.784,0,0,0-.23,1.7V43.36H24.213s.091-19.044,0-21.016H31.2v2.976a6.935,6.935,0,0,1,6.3-3.469c4.6,0,8.042,3,8.042,9.459Zm0,0"/></svg>