<svg xmlns="http://www.w3.org/2000/svg" width="57.365" height="57.365" viewBox="0 0 57.365 57.365"><defs><style>.a{fill:#ce4343;}</style></defs><path class="a" d="M204.007,341.54c-1.285,1.285-4.038,1.744-6,1.744s-4.715-.459-6-1.744a.775.775,0,0,0-1.1,1.1c2.036,2.036,5.949,2.2,7.1,2.2s5.054-.161,7.1-2.2a.783.783,0,0,0,0-1.1A.772.772,0,0,0,204.007,341.54Zm0,0" transform="translate(-169.318 -303.071)"/><path class="a" d="M176.626,258.989a2.989,2.989,0,1,0-2.989,2.989A2.994,2.994,0,0,0,176.626,258.989Zm0,0" transform="translate(-151.529 -227.318)"/><path class="a" d="M28.682,0A28.682,28.682,0,1,0,57.365,28.682,28.685,28.685,0,0,0,28.682,0ZM45.324,32.508a8.322,8.322,0,0,1,.1,1.257c0,6.436-7.492,11.651-16.733,11.651S11.955,40.2,11.955,33.765a8.415,8.415,0,0,1,.1-1.268,4.18,4.18,0,1,1,4.6-6.832A20.51,20.51,0,0,1,28.04,22.12c0-.057,2.088-10,2.088-10a.736.736,0,0,1,.321-.47.745.745,0,0,1,.562-.1l6.953,1.48a2.988,2.988,0,1,1-.3,1.463L31.436,13.16l-1.9,8.966a20.463,20.463,0,0,1,11.186,3.551A4.178,4.178,0,0,1,47.8,28.682,4.2,4.2,0,0,1,45.324,32.508Zm0,0"/><path class="a" d="M290.989,256a2.989,2.989,0,1,0,2.989,2.989A2.994,2.994,0,0,0,290.989,256Zm0,0" transform="translate(-255.732 -227.318)"/></svg>