<svg width="36" height="43" viewBox="0 0 36 43" fill="none" xmlns="http://www.w3.org/2000/svg">
<path d="M34.941 21.076C34.9106 20.5973 34.7707 20.132 34.5321 19.716C34.2936 19.2999 33.9627 18.9441 33.565 18.676C33.601 15.741 33.565 12.769 33.447 9.837C33.368 7.802 33.247 5.737 33.098 3.705C33.0385 2.90582 32.7015 2.15258 32.1452 1.57569C31.5889 0.998792 30.8485 0.634546 30.052 0.546002C23.4834 -0.182143 16.8545 -0.182143 10.286 0.546002C9.49956 0.633262 8.76738 0.989434 8.21328 1.55429C7.65917 2.11915 7.31713 2.85803 7.245 3.646L6.821 3.69C6.02479 3.77863 5.28455 4.14261 4.7282 4.71904C4.17185 5.29548 3.83434 6.04815 3.77399 6.847C3.73999 7.305 3.706 7.784 3.674 8.313C3.574 9.853 3.48999 11.413 3.42899 12.962L3.31099 12.978C2.62926 13.0775 1.99959 13.3997 1.52008 13.8944C1.04058 14.3891 0.738177 15.0285 0.659996 15.713C-0.0599467 22.0875 -0.187493 28.515 0.278996 34.913C0.284905 34.994 0.306702 35.073 0.343143 35.1455C0.379585 35.218 0.429957 35.2827 0.491383 35.3358C0.552809 35.3888 0.624087 35.4293 0.701145 35.4548C0.778204 35.4803 0.859535 35.4904 0.940495 35.4845C1.02145 35.4786 1.10046 35.4568 1.17299 35.4204C1.24553 35.3839 1.31018 35.3335 1.36325 35.2721C1.41632 35.2107 1.45677 35.1394 1.48229 35.0624C1.50781 34.9853 1.5179 34.904 1.51199 34.823C1.051 28.4996 1.17721 22.1471 1.889 15.847C1.93645 15.434 2.11906 15.0484 2.40843 14.7499C2.6978 14.4515 3.07769 14.2571 3.48899 14.197C7.3476 13.5753 11.2796 13.5598 15.143 14.151C15.5468 14.2193 15.9175 14.4172 16.1991 14.7146C16.4807 15.0121 16.6579 15.393 16.704 15.8C16.72 15.943 16.736 16.085 16.751 16.229C16.833 16.9939 17.1949 17.7014 17.7672 18.2153C18.3396 18.7293 19.0818 19.0134 19.851 19.013H19.865C23.865 18.994 27.93 19.113 31.934 19.375C32.3945 19.4057 32.8281 19.6029 33.1539 19.93C33.4796 20.257 33.6751 20.6914 33.704 21.152C33.9832 25.7539 33.9518 30.3693 33.61 34.967C33.61 34.977 33.61 34.987 33.61 34.998C33.52 36.213 33.404 37.467 33.264 38.726C33.2143 39.1607 33.0148 39.5646 32.6999 39.8684C32.385 40.1722 31.9742 40.3569 31.538 40.391C22.2379 41.1372 12.8931 41.1372 3.59299 40.391C3.15512 40.354 2.74361 40.1664 2.42854 39.86C2.11347 39.5537 1.91432 39.1477 1.86499 38.711C1.80999 38.218 1.75599 37.698 1.70399 37.164C1.69775 37.082 1.67521 37.0021 1.63769 36.929C1.60017 36.8558 1.54843 36.7909 1.4855 36.7379C1.42258 36.685 1.34972 36.6452 1.27121 36.6208C1.1927 36.5964 1.11011 36.5879 1.02827 36.5958C0.946436 36.6038 0.867003 36.6279 0.794624 36.6669C0.722246 36.7059 0.658376 36.759 0.606758 36.823C0.55514 36.887 0.516812 36.9606 0.494015 37.0396C0.471218 37.1186 0.464411 37.2013 0.473995 37.283C0.525995 37.823 0.580994 38.349 0.635994 38.848C0.71661 39.5702 1.04579 40.242 1.56717 40.7482C2.08855 41.2545 2.7697 41.5637 3.494 41.623C8.163 41.999 12.864 42.187 17.566 42.187C22.268 42.187 26.966 41.999 31.637 41.623C32.3593 41.5657 33.0392 41.259 33.5603 40.7555C34.0813 40.252 34.411 39.5829 34.493 38.863C34.634 37.6 34.751 36.341 34.841 35.119C34.841 35.109 34.841 35.099 34.841 35.089C35.1898 30.4256 35.2232 25.7439 34.941 21.076ZM30.104 18.032C30.087 16.351 30.047 14.655 29.981 12.98C29.917 11.346 29.829 9.699 29.72 8.086C29.7157 8.00417 29.6951 7.92402 29.6595 7.85021C29.6239 7.7764 29.574 7.7104 29.5127 7.65607C29.4513 7.60173 29.3798 7.56013 29.3022 7.5337C29.2247 7.50726 29.1426 7.49652 29.0609 7.50209C28.9791 7.50765 28.8993 7.52943 28.826 7.56614C28.7527 7.60285 28.6875 7.65376 28.6341 7.71592C28.5807 7.77807 28.5402 7.85023 28.5149 7.92818C28.4897 8.00614 28.4802 8.08834 28.487 8.17C28.596 9.77 28.687 11.407 28.746 13.029C28.81 14.667 28.846 16.329 28.867 17.97C25.867 17.83 22.852 17.77 19.867 17.78H19.858C19.3936 17.7802 18.9454 17.6088 18.5997 17.2987C18.254 16.9886 18.0351 16.5617 17.985 16.1C17.969 15.955 17.953 15.81 17.937 15.665C17.9101 15.4261 17.8554 15.1912 17.774 14.965H25.257C25.4209 14.965 25.5781 14.8999 25.694 14.784C25.8099 14.6681 25.875 14.5109 25.875 14.347C25.875 14.1831 25.8099 14.0259 25.694 13.91C25.5781 13.7941 25.4209 13.729 25.257 13.729H16.957C16.5085 13.3115 15.9466 13.036 15.342 12.937C11.8087 12.3867 8.21523 12.3406 4.66899 12.8C4.72799 11.333 4.806 9.855 4.904 8.4C4.939 7.875 4.97199 7.4 5.00399 6.945C5.04278 6.43386 5.25884 5.9523 5.61487 5.5835C5.97089 5.21469 6.44454 4.98178 6.95399 4.925C13.4322 4.20741 19.9698 4.20741 26.448 4.925C26.7933 4.96401 27.1245 5.08397 27.4147 5.27511C27.7049 5.46625 27.9458 5.72318 28.118 6.025C28.1992 6.16742 28.3336 6.27177 28.4917 6.31509C28.6497 6.35841 28.8186 6.33716 28.961 6.256C29.1034 6.17485 29.2078 6.04044 29.2511 5.88234C29.2944 5.72425 29.2731 5.55542 29.192 5.413C28.9228 4.94248 28.5464 4.54207 28.0935 4.24426C27.6405 3.94646 27.1237 3.75965 26.585 3.699C20.581 3.03478 14.5253 2.97816 8.50999 3.53C8.60271 3.07397 8.83765 2.65909 9.18102 2.345C9.5244 2.03092 9.95853 1.8338 10.421 1.782C16.8992 1.06386 23.4368 1.06386 29.915 1.782C30.4245 1.83878 30.8981 2.07169 31.2541 2.4405C31.6101 2.8093 31.8262 3.29086 31.865 3.802C32.016 5.822 32.133 7.87 32.211 9.89C32.319 12.642 32.36 15.429 32.334 18.19C32.2307 18.1728 32.1265 18.1608 32.022 18.154C31.3847 18.106 30.7453 18.0653 30.104 18.032Z" fill="#DE6834" stroke="#DE6834"/>
<path d="M27.47 39.147C28.3086 39.147 29.1283 38.8983 29.8256 38.4324C30.5229 37.9665 31.0663 37.3043 31.3872 36.5296C31.7082 35.7548 31.7921 34.9023 31.6285 34.0798C31.4649 33.2573 31.0611 32.5018 30.4681 31.9089C29.8751 31.3159 29.1196 30.9121 28.2972 30.7485C27.4747 30.5849 26.6222 30.6688 25.8474 30.9897C25.0726 31.3107 24.4104 31.8541 23.9445 32.5514C23.4787 33.2487 23.23 34.0684 23.23 34.907C23.2313 36.0311 23.6784 37.1088 24.4733 37.9037C25.2682 38.6985 26.3459 39.1457 27.47 39.147V39.147ZM27.47 31.902C28.0633 31.902 28.6433 32.0779 29.1367 32.4076C29.63 32.7372 30.0146 33.2058 30.2416 33.7539C30.4687 34.3021 30.5281 34.9053 30.4123 35.4873C30.2966 36.0692 30.0109 36.6038 29.5913 37.0233C29.1718 37.4429 28.6372 37.7286 28.0553 37.8444C27.4733 37.9601 26.8701 37.9007 26.3219 37.6736C25.7738 37.4466 25.3052 37.062 24.9756 36.5687C24.6459 36.0753 24.47 35.4954 24.47 34.902C24.4721 34.107 24.7888 33.3452 25.351 32.783C25.9131 32.2209 26.675 31.9041 27.47 31.902V31.902Z" fill="#DE6834" stroke="#DE6834"/>
<path d="M25.256 10.179H9.19199C9.02808 10.179 8.87089 10.2441 8.75499 10.36C8.63909 10.4759 8.57397 10.6331 8.57397 10.797C8.57397 10.9609 8.63909 11.1181 8.75499 11.234C8.87089 11.3499 9.02808 11.415 9.19199 11.415H25.256C25.4199 11.415 25.5771 11.3499 25.693 11.234C25.8089 11.1181 25.874 10.9609 25.874 10.797C25.874 10.6331 25.8089 10.4759 25.693 10.36C25.5771 10.2441 25.4199 10.179 25.256 10.179V10.179Z" fill="#DE6834" stroke="#DE6834"/>
</svg>
