<svg xmlns="http://www.w3.org/2000/svg" width="25.038" height="25.038" viewBox="0 0 25.038 25.038"><defs><style>.a{fill:#de6834;}</style></defs><g transform="translate(0 0)"><g transform="translate(8.42 0)"><g transform="translate(0 0)"><path class="a" d="M187.06,1.719a5.868,5.868,0,0,0-8.3,0l-4.9,4.9a5.924,5.924,0,0,0,0,8.3,5.585,5.585,0,0,0,1.18.9l.9-.9a2.016,2.016,0,0,0,.37-1.769,2.832,2.832,0,0,1-.37-.306,2.966,2.966,0,0,1,0-4.15l4.9-4.9a2.934,2.934,0,0,1,4.15,4.15l-3.242,3.242a8.445,8.445,0,0,1,.367,3.774c.014-.014.031-.023.045-.037l4.9-4.9A5.869,5.869,0,0,0,187.06,1.719Z" transform="translate(-172.159 0)"/></g></g><g transform="translate(0 8.84)"><g transform="translate(0)"><path class="a" d="M15.3,181.671a5.586,5.586,0,0,0-1.18-.9l-.9.9a2.015,2.015,0,0,0-.37,1.769,2.827,2.827,0,0,1,.37.306,2.966,2.966,0,0,1,0,4.15L7.944,193.18a2.934,2.934,0,0,1-4.15-4.15l3.622-3.622a8.444,8.444,0,0,1-.367-3.774c-.014.014-.031.023-.045.037l-5.285,5.285a5.868,5.868,0,0,0,8.3,8.3L15.3,189.97A5.921,5.921,0,0,0,15.3,181.671Z" transform="translate(0 -180.776)"/></g></g></g></svg>