<svg xmlns="http://www.w3.org/2000/svg" width="63.02" height="51.898" viewBox="0 0 63.02 51.898"><defs><style>.a{opacity:0.063;}.b{fill:#8d8d8d;}</style></defs><g class="a" transform="translate(23 483)"><g transform="translate(-23 -483)"><path class="b" d="M177.854,330.8a1.854,1.854,0,1,1,0-3.707,3.707,3.707,0,0,0,3.707-3.707v-13.9A6.487,6.487,0,0,1,188.048,303h.927a1.854,1.854,0,1,1,0,3.707h-.927a2.78,2.78,0,0,0-2.78,2.78v13.9a7.4,7.4,0,0,1-2.51,5.56,7.4,7.4,0,0,1,2.51,5.561v13.9a2.78,2.78,0,0,0,2.78,2.78h.927a1.854,1.854,0,1,1,0,3.707h-.927a6.487,6.487,0,0,1-6.487-6.487v-13.9A3.707,3.707,0,0,0,177.854,330.8Zm59.312,0a3.707,3.707,0,0,0-3.707,3.707v13.9a6.487,6.487,0,0,1-6.487,6.487h-.927a1.854,1.854,0,1,1,0-3.707h.927a2.78,2.78,0,0,0,2.78-2.78v-13.9a7.4,7.4,0,0,1,2.51-5.561,7.4,7.4,0,0,1-2.51-5.56v-13.9a2.78,2.78,0,0,0-2.78-2.78h-.927a1.854,1.854,0,1,1,0-3.707h.927a6.487,6.487,0,0,1,6.487,6.487v13.9a3.707,3.707,0,0,0,3.707,3.707A1.854,1.854,0,1,1,237.166,330.8Zm-44.484-14.828a1.854,1.854,0,0,1,0-3.707h12.975a1.854,1.854,0,0,1,0,3.707Zm0,29.656a1.854,1.854,0,1,1,0-3.707h12.975a1.854,1.854,0,1,1,0,3.707Zm12.975-19.462a1.854,1.854,0,1,1,0-3.707h16.682a1.854,1.854,0,1,1,0,3.707Zm0,9.268a1.854,1.854,0,1,1,0-3.707h16.682a1.854,1.854,0,1,1,0,3.707Z" transform="translate(-176 -303)"/></g></g></svg>