<svg height='300px' width='300px'  fill="#de6834" xmlns="http://www.w3.org/2000/svg" xmlns:xlink="http://www.w3.org/1999/xlink" version="1.1" x="0px" y="0px" viewBox="0 0 128 128" style="enable-background:new 0 0 128 128;" xml:space="preserve"><g><g><path d="M21.69,123c-5.97-0.136-10.696-2.087-14.097-5.8c-6.172-6.738-5.597-16.79-5.569-17.215    c0.068-1.052,0.941-1.871,1.996-1.871h13.25l54.981-0.218c0.519-0.016,1.076,0.222,1.455,0.62s0.578,0.934,0.55,1.483    c-0.42,8.166,0.598,13.458,3.111,16.18c1.572,1.703,3.828,2.505,7.314,2.604c0.054,0.001,0.108,0.005,0.162,0.011    c1.055,0.116,1.848,1.038,1.791,2.098c-0.079,1.458-1.227,1.799-2.065,1.883v0.006c-0.017,0-0.033-0.001-0.05-0.001    c-0.22,0.02-0.415,0.023-0.561,0.025c-0.464,0.007-1.146,0.014-2.012,0.021c-1.723,0.013-4.185,0.026-7.139,0.039    c-5.903,0.025-13.773,0.049-21.643,0.069C37.427,122.973,21.69,123,21.69,123z M6.034,102.115    c0.148,2.882,0.922,8.482,4.525,12.401c2.635,2.866,6.395,4.375,11.174,4.484c12.082-0.021,38.217-0.075,52.67-0.135    c-3.054-3.33-4.411-8.751-4.221-16.96l-52.904,0.209H6.034z"></path><g><path d="M121.143,32.443c-0.283,0-0.571-0.061-0.845-0.188l-10.702-4.997c-0.483-0.226-0.856-0.635-1.036-1.137     c-0.18-0.502-0.152-1.055,0.077-1.537l2.623-5.497c0.716-1.525,1.999-2.664,3.611-3.205c1.58-0.529,3.297-0.424,4.838,0.298     l2.684,1.309c1.502,0.725,2.65,1.992,3.224,3.566c0.524,1.439,0.51,3.06-0.042,4.686c-0.025,0.074-0.054,0.146-0.087,0.216     l-2.538,5.343C122.608,32.021,121.891,32.443,121.143,32.443z M113.115,24.486l7.075,3.303l1.63-3.433     c0.164-0.522,0.287-1.251,0.039-1.932c-0.217-0.597-0.637-1.059-1.211-1.336l-2.665-1.3c-0.576-0.27-1.239-0.315-1.839-0.114     c-0.568,0.191-1.018,0.587-1.265,1.115c-0.002,0.004-0.004,0.009-0.006,0.013L113.115,24.486z M113.067,19.941h0.01H113.067z"></path><path d="M89.96,86.265c-0.567,0-1.136-0.145-1.658-0.439c-1.203-0.612-1.97-1.983-1.835-3.371l1.753-13.979     c0.026-0.209,0.085-0.413,0.175-0.604l1.807-3.832l18.427-39.441c0.467-1,1.655-1.434,2.658-0.965l10.702,4.997     c1,0.467,1.433,1.656,0.967,2.656l-20.17,43.311c-0.098,0.209-0.23,0.4-0.394,0.564L92.345,85.287     C91.669,85.934,90.817,86.265,89.96,86.265z M92.15,69.29l-1.51,12.038l8.669-8.736l19.179-41.183l-7.08-3.306L92.15,69.29z"></path><path d="M86.613,122.782h-1.104c-1.104,0-2-0.896-2-2s0.896-2,2-2h1.104c7.056,0,12.796-5.642,12.796-12.576l0.223-4.905     L99.63,72.344c0-1.104,0.896-2,2-2s2,0.896,2,2v29.049l-0.223,4.905C103.41,115.346,95.875,122.782,86.613,122.782z"></path><path d="M14.841,102.114c-0.001,0-0.003,0-0.005,0c-1.105-0.003-1.998-0.9-1.995-2.005l0.221-86.696     c0-4.637,3.82-8.413,8.515-8.413h74.533c4.147,0,7.521,3.337,7.521,7.439v31.867c0,1.104-0.896,2-2,2s-2-0.896-2-2V12.439     c0-1.896-1.58-3.439-3.521-3.439H21.577c-2.49,0-4.515,1.982-4.515,4.418l-0.221,86.701     C16.838,101.222,15.943,102.114,14.841,102.114z"></path><path d="M100.973,75.753c-0.283,0-0.571-0.061-0.845-0.188l-10.769-5.028c-1.001-0.467-1.433-1.657-0.966-2.658     c0.466-1,1.655-1.434,2.658-0.966l10.769,5.028c1.001,0.467,1.433,1.657,0.966,2.658     C102.447,75.326,101.726,75.753,100.973,75.753z"></path></g><g><g><path d="M43.302,29.586l7.511-3.093c0.797-0.328,1.203-1.219,0.927-2.035l0,0c-0.304-0.902-1.312-1.355-2.189-0.983      l-9.666,4.101c-0.807,0.342-1.331,1.134-1.331,2.01v0c0,0.877,0.524,1.668,1.331,2.011l9.667,4.101      c0.876,0.372,1.884-0.081,2.188-0.983v0c0.275-0.816-0.13-1.707-0.927-2.035L43.302,29.586z"></path><path d="M62.435,15.852L62.435,15.852c-0.737,0-1.393,0.466-1.636,1.161l-8.384,23.973c-0.399,1.142,0.448,2.336,1.658,2.336h0      c0.748,0,1.413-0.473,1.659-1.179l8.341-23.988C64.463,17.028,63.627,15.852,62.435,15.852z"></path><path d="M64.73,24.458L64.73,24.458c-0.275,0.817,0.13,1.707,0.927,2.035l7.512,3.093l-7.512,3.094      c-0.797,0.328-1.202,1.218-0.927,2.035v0c0.304,0.902,1.312,1.354,2.188,0.983l9.667-4.101c0.807-0.342,1.331-1.134,1.331-2.01      v0c0-0.877-0.524-1.668-1.331-2.01l-9.667-4.101C66.042,23.103,65.034,23.555,64.73,24.458z"></path></g><path d="M90.637,55.417H25.834c-1.104,0-2-0.896-2-2s0.896-2,2-2h64.802c1.104,0,2,0.896,2,2S91.741,55.417,90.637,55.417z"></path><path d="M90.637,70.763H25.834c-1.104,0-2-0.896-2-2s0.896-2,2-2h64.802c1.104,0,2,0.896,2,2S91.741,70.763,90.637,70.763z"></path><path d="M89.637,86.109H25.834c-1.104,0-2-0.896-2-2s0.896-2,2-2h63.802c1.104,0,2,0.896,2,2S90.741,86.109,89.637,86.109z"></path></g></g></g></svg>