<svg xmlns="http://www.w3.org/2000/svg" width="33.624" height="33.274" viewBox="0 0 33.624 33.274"><defs><style>.a{fill:#de6834;}</style></defs><g class="a"><g transform="translate(0 17.022)"><path d="M0,25.573V41.825H5.6V25.573ZM4.2,40.424H1.4V26.974H4.2Z" transform="translate(0 -25.573)"/></g><g transform="translate(9.387 19.264)"><path d="M13.958,28.906v14.01h5.6V28.906Zm4.2,12.609h-2.8V30.307h2.8Z" transform="translate(-13.958 -28.906)"/></g><g transform="translate(18.703 14.08)"><path d="M27.812,21.2V40.392h5.6V21.2Zm4.2,17.793h-2.8V22.6h2.8Z" transform="translate(-27.812 -21.198)"/></g><g transform="translate(28.02 15.061)"><path d="M41.667,22.656V40.869h5.6V22.656Zm4.2,16.812h-2.8V24.057h2.8Z" transform="translate(-41.667 -22.656)"/></g><g transform="translate(0 3.222)"><path d="M2.872,5.052a2.8,2.8,0,1,0,0,5.6,2.871,2.871,0,0,0,2.872-2.8A2.826,2.826,0,0,0,2.872,5.052Zm0,4.2a1.4,1.4,0,1,1,0-2.8,1.467,1.467,0,0,1,1.471,1.4A1.422,1.422,0,0,1,2.872,9.255Z" transform="translate(0 -5.052)"/></g><g transform="translate(11.698 8.826)"><path d="M20.058,13.385a2.662,2.662,0,1,0,2.662,2.662A2.661,2.661,0,0,0,20.058,13.385Zm0,3.993a1.261,1.261,0,1,1,1.261-1.261A1.256,1.256,0,0,1,20.058,17.378Z" transform="translate(-17.396 -13.385)"/></g><g transform="translate(18.984 0)"><path d="M31.031.26a2.8,2.8,0,1,0,2.8,2.8A2.81,2.81,0,0,0,31.031.26Zm0,4.273a1.4,1.4,0,1,1,1.4-1.4A1.405,1.405,0,0,1,31.031,4.533Z" transform="translate(-28.229 -0.26)"/></g><g transform="translate(27.95 5.884)"><path d="M44.365,9.01a2.8,2.8,0,1,0,2.8,2.8A2.81,2.81,0,0,0,44.365,9.01Zm0,4.273a1.4,1.4,0,0,1,0-2.8,1.362,1.362,0,0,1,1.4,1.4A1.405,1.405,0,0,1,44.365,13.283Z" transform="translate(-41.562 -9.01)"/></g><g transform="translate(4.872 6.242)"><g transform="translate(0)"><rect width="1.401" height="8.125" transform="translate(0 1.254) rotate(-63.499)"/></g></g><g transform="translate(15.245 3.825)"><g transform="translate(0 0)"><rect width="7.075" height="1.401" transform="matrix(0.622, -0.783, 0.783, 0.622, 0, 5.54)"/></g></g><g transform="translate(23.191 3.024)"><g transform="translate(0)"><rect width="1.401" height="6.515" transform="translate(0 1.145) rotate(-54.803)"/></g></g></g></svg>